<svg xmlns="http://www.w3.org/2000/svg" xmlns:xlink="http://www.w3.org/1999/xlink" version="1.1"  x="0px" y="0px" width="32" height="32" viewBox="0 0 100 100" style="enable-background:new 0 0 100 100;" xml:space="preserve" viewbox="0 0 32 32">

<g id="271184559_base_grid">
	
		<linearGradient id="271184559_SVGID_1__grid" gradientUnits="userSpaceOnUse" x1="369.2637" y1="-335.7383" x2="362.2697" y2="-323.8696" gradientTransform="matrix(1 0 0 -1 -294 -250)">
		<stop offset="0" style="stop-color:#000000;stop-opacity:0"></stop>
		<stop offset="1" style="stop-color:#000000"></stop>
	</linearGradient>
	<polyline class="st0" points="44.088,90.575 89.578,63.868 100,69.977 55.645,96.942 44.088,90.575  " style="opacity:0.15;fill:url(#271184559_SVGID_1__grid);enable-background:new    ;;"></polyline>
	<path class="st8" d="M93.94,64.43l-0.011,3.28c0,0.59-0.39,1.18-1.17,1.63L52.94,92.37l-0.011,0.01c-1.569,0.9-4.12,0.9-5.699,0   c-0.011,0-0.011,0-0.011-0.01L7.13,69.34c-0.8-0.46-1.189-1.06-1.189-1.66l0.01-3.27c0-0.59,0.39-1.19,1.17-1.64l39.83-23.03   c1.569-0.91,4.13-0.91,5.71,0l40.08,23.03C93.54,63.23,93.94,63.83,93.94,64.43z" style="fill:#D0DEE2;;"></path>
	<path class="st6" d="M47.227,89.098L7.139,66.063c-0.795-0.456-1.191-1.056-1.189-1.655L5.94,67.682   c-0.003,0.6,0.395,1.199,1.188,1.655l40.088,23.036c0.003,0.002,0.007,0.003,0.01,0.005v-0.005V89.098z" style="opacity:0.1;;"></path>
	<path class="st1" d="M47.227,89.098v3.275v0.005c1.587,0.904,4.134,0.903,5.7-0.001l0.009-0.005v-3.271   C51.367,90.008,48.812,90.008,47.227,89.098z" style="opacity:0.12;;"></path>
	<path class="st7" d="M92.77,66.063L52.936,89.102v3.271l39.825-23.035c0.778-0.451,1.167-1.04,1.169-1.632l0.01-3.273   C93.938,65.022,93.548,65.611,92.77,66.063z" style="opacity:0.2;;"></path>
</g>
<g id="271184559_icon_grid">
	<linearGradient id="271184559_SVGID_2__grid" gradientUnits="userSpaceOnUse" x1="68.8809" y1="83.9883" x2="52.0148" y2="55.3671">
		<stop offset="0" style="stop-color:#000000;stop-opacity:0"></stop>
		<stop offset="1" style="stop-color:#000000"></stop>
	</linearGradient>
	<polygon class="st4" points="64.619,54.099 31.546,73.348 58.462,88.902 58.462,88.902 91.562,69.761  " style="opacity:0.15;fill:url(#271184559_SVGID_2__grid);;"></polygon>
	<path class="stshockcolor" d="M76.01,58.22l-0.02,4.89c-0.01,3.83-2.521,7.65-7.55,10.57c-10.12,5.891-26.591,5.88-36.771,0   c-5.13-2.96-7.689-6.84-7.68-10.72l0.02-4.64c0,0.04,0,0.08,0.01,0.12c-0.01-0.1-0.01-0.2-0.01-0.3v-0.05   c0-3.84,2.521-7.67,7.55-10.6c10.12-5.88,26.58-5.88,36.771,0C73.46,50.45,76.02,54.34,76.01,58.22z" style="fill:#93C1CF;;" data-st="fill:#93C1CF;;"></path>
	<path class="st3" d="M65.2,58.39l-0.01,3.26c0,0.45-0.311,0.9-0.891,1.23c-0.18,0.1-0.38,0.19-0.6,0.26L51.6,67.2l-0.09,0.02   c-0.1,0.03-0.189,0.05-0.3,0.08l-0.26,0.061L50.68,67.39l-0.3,0.03l-0.28,0.01l-0.29-0.01l-0.27-0.03l-0.3-0.04l-0.26-0.05   c-0.101-0.02-0.2-0.05-0.301-0.08l-0.09-0.02l-12.14-4.06c-0.24-0.08-0.45-0.17-0.63-0.27c-0.57-0.33-0.88-0.78-0.88-1.24   l0.01-3.26c0-0.29,0.13-0.59,0.399-0.86c0.131-0.13,0.28-0.25,0.45-0.35c0.931-0.55,2.431-0.69,3.641-0.29l7.64,2.55l-0.07-13.21   c-0.01-0.48,0.33-0.91,0.87-1.22c0.54-0.32,1.29-0.51,2.11-0.51c0.83,0,1.58,0.19,2.13,0.51C52.66,45.3,53,45.73,53,46.21   l0.08,13.21l7.61-2.55c1.199-0.4,2.68-0.26,3.619,0.28c0.19,0.1,0.351,0.23,0.48,0.36C65.07,57.79,65.2,58.09,65.2,58.39z" style="fill:#EBEAE9;;"></path>
	<path class="st2" d="M76.008,58.216l-0.014,4.891c-0.012,3.83-2.527,7.654-7.554,10.575c-10.123,5.883-26.587,5.879-36.771,0   c-5.128-2.961-7.688-6.845-7.678-10.724l0.014-4.891c-0.011,3.878,2.551,7.763,7.678,10.724   c10.184,5.879,26.647,5.883,36.771-0.001C73.48,65.871,75.997,62.046,76.008,58.216" style="opacity:0.15;;"></path>
	<path class="st2" d="M65.2,58.39l-0.01,3.26c0,0.45-0.311,0.9-0.891,1.23c-0.18,0.1-0.38,0.19-0.6,0.26L51.6,67.2l-0.09,0.02   c-0.1,0.03-0.189,0.05-0.3,0.08l-0.26,0.061L50.68,67.39l-0.3,0.03l-0.28,0.01l-0.29-0.01l-0.27-0.03l-0.3-0.04l-0.26-0.05   c-0.101-0.02-0.2-0.05-0.301-0.08l-0.09-0.02l-12.14-4.06c-0.24-0.08-0.45-0.17-0.63-0.27c-0.57-0.33-0.88-0.78-0.88-1.24   l0.01-3.26c0,0.46,0.31,0.91,0.88,1.24c0.18,0.1,0.39,0.19,0.63,0.27l12.14,4.06l0.091,0.02c0.1,0.03,0.199,0.06,0.3,0.08   l0.26,0.05l0.29,0.04l0.28,0.03h0.569l0.301-0.03l0.27-0.04l0.26-0.05c0.11-0.03,0.2-0.05,0.3-0.08l0.091-0.02l12.1-4.06   c0.22-0.07,0.42-0.16,0.6-0.26C64.89,59.29,65.2,58.84,65.2,58.39z" style="opacity:0.15;;"></path>
</g>
</svg>